inDegrees=no
num_controls=7
num_derivatives=13
num_iterations=124
num_multipliers=7
num_parameters=0
num_slacks=7
num_states=26
objective=0.404578
objective_accelerations=0.028030
objective_balance=0.001514
objective_effort=0.013824
objective_height=0.355835
objective_ligament=0.005374
solver_duration=1703.119320
status=Solve_Succeeded
success=true
DataType=double
version=3
OpenSimVersion=4.5
endheader
time	/jointset/ground_pelvis/pelvis_tilt/value	/jointset/ground_pelvis/pelvis_tx/value	/jointset/ground_pelvis/pelvis_ty/value	/jointset/hip_l/hip_flexion_l/value	/jointset/hip_l/hip_adduction_l/value	/jointset/hip_l/hip_rotation_l/value	/jointset/back/lumbar_extension/value	/jointset/patellofemoral_l/patellar_flexion_l/value	/jointset/knee_l/knee_flexion_l/value	/jointset/knee_l/knee_adduction_l/value	/jointset/knee_l/knee_rotation_l/value	/jointset/ankle_l/ankle_angle_l/value	/jointset/subtalar_l/subtalar_angle_l/value	/jointset/ground_pelvis/pelvis_tilt/speed	/jointset/ground_pelvis/pelvis_tx/speed	/jointset/ground_pelvis/pelvis_ty/speed	/jointset/hip_l/hip_flexion_l/speed	/jointset/hip_l/hip_adduction_l/speed	/jointset/hip_l/hip_rotation_l/speed	/jointset/back/lumbar_extension/speed	/jointset/patellofemoral_l/patellar_flexion_l/speed	/jointset/knee_l/knee_flexion_l/speed	/jointset/knee_l/knee_adduction_l/speed	/jointset/knee_l/knee_rotation_l/speed	/jointset/ankle_l/ankle_angle_l/speed	/jointset/subtalar_l/subtalar_angle_l/speed	/forceset/tau_hip_flexion_l	/forceset/tau_hip_adduction_l	/forceset/tau_hip_rotation_l	/forceset/tau_knee_flexion_l	/forceset/tau_ankle_angle_l	/forceset/tau_subtalar_angle_l	/forceset/tau_lumbar_extension	lambda_cid13_p0	lambda_cid13_p1	lambda_cid13_p2	lambda_cid13_p3	lambda_cid13_p4	lambda_cid13_p5	lambda_cid14_p0	/jointset/ground_pelvis/pelvis_tilt/accel	/jointset/ground_pelvis/pelvis_tx/accel	/jointset/ground_pelvis/pelvis_ty/accel	/jointset/hip_l/hip_flexion_l/accel	/jointset/hip_l/hip_adduction_l/accel	/jointset/hip_l/hip_rotation_l/accel	/jointset/back/lumbar_extension/accel	/jointset/patellofemoral_l/patellar_flexion_l/accel	/jointset/knee_l/knee_flexion_l/accel	/jointset/knee_l/knee_adduction_l/accel	/jointset/knee_l/knee_rotation_l/accel	/jointset/ankle_l/ankle_angle_l/accel	/jointset/subtalar_l/subtalar_angle_l/accel	gamma_cid13_p0	gamma_cid13_p1	gamma_cid13_p2	gamma_cid13_p3	gamma_cid13_p4	gamma_cid13_p5	gamma_cid14_p0
0	-0.04282046359512187	0.07037202340576745	0.8960847680557636	0.1955287580552426	-0.3205810825727881	-0.5114436918790813	-0.1379045077516729	0.07015288079084599	0.07015288079084844	-0.1745326874660343	-0.144512414541265	-0.06701059314715049	0.005668152979841393	0	0	0	0	0	0	0	0	0	0	0	0	0	0.08475734715562813	-0.1131834745181495	-0.03666901186293769	-0.249780679606255	0.2474934579065544	-0.009542339034920825	-0.02546313418878048	44.15825479935778	-7.021468458473696	4.705854637606162	-34.54944041643802	-523.9597989070201	-85.41822489212933	-40.65764804250148	-1.117763345630868	-0.2032849225853617	-0.5279430256568215	5.703655948417285	-1.988951770479009	2.726613484581045	-2.2410348301973	8.324690466802592	8.324690466801956	0.2741653994399006	-0.4363086602785428	3.726433274115907	-0.1428803368032298	-3.623528975155747e-08	5.561466078822514e-08	9.449489069695738e-08	1.329506723956175e-08	-2.214374412092644e-08	-5.992467357999381e-08	-9.829322287490362e-09
0.01	-0.0428712048612703	0.07036257007391583	0.8960592636193098	0.1958015277267706	-0.3206789534622381	-0.5113063877217379	-0.1380193603160145	0.0705578207095901	0.07055782070958626	-0.174521307356001	-0.1445290787106263	-0.0668284680780579	0.005660407500222744	-0.01010286086939367	-0.001843078934546053	-0.005082744720976657	0.05427732443803306	-0.01948656967001085	0.02735903256896264	-0.02276342771398298	0.08064715582916752	0.08064715582916406	0.002270193059212851	-0.003300615838703323	0.03632383812635168	-0.001509252003966591	0.08254419377771567	-0.1172551437270046	-0.03620756283261004	-0.2471758573611064	0.2412685102364714	-0.003564563999636686	-0.02350086612990068	42.3463199914727	-9.175739495163468	4.906957721544949	-34.07099076748485	-524.7863498662241	-90.20693081324285	-40.66556920535393	-0.9497468570216899	-0.1676786042418968	-0.4957232386368141	5.248270475607717	-1.915389173840464	2.725266858340186	-2.262933968987417	7.88360591891619	7.883605918916063	0.2025940752353524	-0.2720946375902818	3.570180500330241	-0.1489903529162581	-7.021431212924425e-08	8.384776137599981e-08	1.466052757308463e-07	4.19695980486496e-08	-1.409007406338813e-07	-9.629286548003076e-08	-1.5212771731336e-08
0.02	-0.04302161461599538	0.07033611410764841	0.8959834751269823	0.196608770599511	-0.3209690659701041	-0.5108985494956509	-0.1383556346028912	0.07175900774221054	0.07175900774221079	-0.1744873957520192	-0.1445777803567664	-0.06628614034401453	0.005638760956419849	-0.01993369771592026	-0.003400526883158415	-0.01005681117471292	0.1068946402405209	-0.0384483236831572	0.05410681374937767	-0.04428434450752006	0.1592494227760295	0.1592494227760258	0.004506298761354242	-0.006407495354367549	0.07204053299012221	-0.002780212836851261	0.08033104039989193	-0.1213268129358638	-0.03574611380221514	-0.244571035115937	0.2350435625663948	0.002413211035645943	-0.0215385980709494	40.58558509207361	-11.3412416457169	5.112441356567676	-33.81252817518788	-524.9203821037731	-94.85856927185475	-40.68892134853757	-1.063358541057568	-0.1461587253985281	-0.5062073722087577	5.371654221308169	-1.883988639106254	2.604363206871517	-1.992532646108154	7.915712690341466	7.91571269034148	0.2673479280252762	-0.3975613956707148	3.605004621599735	-0.095222102586971	-1.04193334506931e-07	1.120808619637745e-07	1.987156607647352e-07	7.064412885773745e-08	-2.596577371468362e-07	-1.326610573800677e-07	-2.059622117518164e-08
0.03	-0.04326904133426673	0.07029504342168937	0.8958583263481726	0.1979347657798466	-0.3214460466584357	-0.5102265784629181	-0.1389009335007524	0.0737361921655361	0.07373619216553692	-0.1744311903416307	-0.1446570542804426	-0.06539020932551382	0.005605431798470885	-0.02948605355712254	-0.00481168534768626	-0.01496654267746596	0.1580631412991222	-0.05684513679570401	0.08017311220097501	-0.06459891701956448	0.2358268720290113	0.2358268720290111	0.006727834494971504	-0.009431531955109356	0.1069763738183499	-0.003867887471753889	0.07661634612661462	-0.1161992628740771	-0.03487155179034747	-0.238988206761478	0.227494747746605	0.002035022396311465	-0.01858921027849843	38.12981501069183	-10.88099673418622	5.192114060327073	-32.01783183699803	-525.2611590024721	-93.60532432357276	-40.72682233977348	-0.8913469246073401	-0.1382914179663674	-0.482448164232583	4.95324363660933	-1.802163431415955	2.590596158003432	-2.024441847090719	7.474676704855832	7.474676704856307	0.1985586419234631	-0.2524376505037009	3.412471764290151	-0.1129198120373782	-1.293835864408059e-07	1.233756518881276e-07	2.392572190474548e-07	9.038206837966321e-08	-3.566794216575949e-07	-1.662898039532452e-07	-2.505230753260774e-08
0.04	-0.04361002617473776	0.07023992174888798	0.8956842618293508	0.1997652050884633	-0.3221039226347102	-0.509297377846926	-0.1396440825824006	0.07646833421379937	0.07646833421379967	-0.1743529691247055	-0.1447660911417805	-0.06415000030855962	0.005561749960553821	-0.03864532215655931	-0.006210724251626915	-0.0198399591771689	0.2077834658966582	-0.07462738127173162	0.1055527304005554	-0.08385438126514309	0.3102409477651643	0.3102409477651655	0.008909460064324401	-0.012360082884961	0.1408961326808132	-0.004850748830476721	0.07290165185329085	-0.1110717128123019	-0.03399698977843039	-0.2334053784070677	0.2199459329267914	0.001656833756951009	-0.01563982248605773	35.72216863061682	-10.42920516311777	5.2731664234253	-30.43170419798572	-524.9568757780871	-92.22056169717115	-40.77822783796151	-0.9847410927045395	-0.1437348132810231	-0.4989443715987409	5.082018929095067	-1.761074911802455	2.467027156468119	-1.780710992815022	7.483037986975654	7.48303798697531	0.2593658951722996	-0.378464261492671	3.401788228446905	-0.07425944735102798	-1.543926266129528e-07	1.343211982936474e-07	2.79560244819841e-07	1.099357482874207e-07	-4.532529554054219e-07	-1.998620671176215e-07	-2.948927300165407e-08
0.05	-0.0440409723873886	0.07017088544327342	0.8954615019651538	0.2020863178224931	-0.3229365590836152	-0.5081178450931803	-0.1405742718056434	0.07993436085817575	0.07993436085817539	-0.1742530502339457	-0.1449042028462756	-0.06257541812360995	0.005508881133451471	-0.0474797868458792	-0.007591597846364839	-0.02471474369503569	0.2562044584044369	-0.09179207446615852	0.1302531484582647	-0.1020178531785974	0.3826064486757149	0.3826064486757152	0.01106546297084739	-0.01523684801063773	0.1738556738430408	-0.005698255652057862	0.06923691317610799	-0.1065240378486281	-0.0331415185238941	-0.2285260791435105	0.2125655905716451	0.001725685638213824	-0.01273476965050269	33.36125414452054	-10.1621681428219	5.363595200864709	-28.81226153342148	-524.961962754427	-91.30408312826832	-40.841809410491	-0.8231923007795859	-0.1345006335049955	-0.4822464277931645	4.686925091773122	-1.678039411081546	2.456412163855458	-1.809323759990493	7.059622211636797	7.059622211636873	0.1924479182385438	-0.2384363545645561	3.218331003382905	-0.08633362594265059	-1.733340148156125e-07	1.415166105236071e-07	3.126118760522189e-07	1.242953855585671e-07	-5.237818675037447e-07	-2.269078236751167e-07	-3.30486953307736e-08
